<svg width="273" height="303" viewBox="0 0 273 303" fill="none" xmlns="http://www.w3.org/2000/svg">
<path d="M136.351 303.005C132.111 303.005 128.159 301.891 124.495 299.938L86.9451 277.942C81.2993 274.875 84.1222 273.761 85.8159 273.205C93.443 270.694 94.8492 270.137 102.753 265.684C103.605 265.127 104.735 265.411 105.576 265.967L134.37 282.952C135.499 283.509 136.916 283.509 137.757 282.952L250.396 218.646C251.525 218.089 252.09 216.976 252.09 215.579V87.271C252.09 85.8739 251.525 84.7605 250.396 84.2038L137.768 20.1811C136.639 19.6243 135.222 19.6243 134.38 20.1811L21.7416 84.2143C20.6124 84.771 20.0479 86.168 20.0479 87.2815V215.61C20.0479 216.724 20.6124 218.121 21.7416 218.678L52.5164 236.22C69.1768 244.57 79.6162 234.823 79.6162 225.085V98.4053C79.6162 96.7352 81.033 95.065 83.0037 95.065H97.4057C99.0995 95.065 100.793 96.4621 100.793 98.4053V225.064C100.793 247.06 88.6495 259.864 67.4831 259.864C60.9851 259.864 55.9039 259.864 41.5125 252.9L11.8668 236.199C4.51663 232.028 0 224.234 0 215.884V87.5546C0 79.2038 4.51663 71.4097 11.8561 67.2291L124.495 2.92278C131.557 -0.974258 141.155 -0.974258 148.207 2.92278L260.846 67.2291C268.185 71.4097 272.702 79.2038 272.702 87.5546V215.884C272.702 224.234 268.185 232.028 260.846 236.209L148.207 300.515C144.543 302.175 140.303 303.005 136.351 303.005ZM171.078 214.77C121.672 214.77 111.51 192.501 111.51 173.573C111.51 171.903 112.926 170.233 114.897 170.233H129.576C131.27 170.233 132.687 171.346 132.687 173.016C134.945 187.775 141.443 195.012 171.366 195.012C195.078 195.012 205.24 189.718 205.24 177.197C205.24 169.96 202.417 164.665 165.432 161.052C134.657 157.985 115.462 151.304 115.462 127.092C115.462 104.54 134.657 91.1785 166.838 91.1785C202.971 91.1785 220.761 103.426 223.019 130.149C223.019 130.989 222.731 131.819 222.167 132.659C221.602 133.216 220.75 133.773 219.909 133.773H205.23C203.813 133.773 202.407 132.659 202.119 131.262C198.732 115.947 189.975 110.937 166.828 110.937C140.857 110.937 137.746 119.844 137.746 126.525C137.746 134.603 141.422 137.103 176.425 141.556C211.152 146.01 227.525 152.418 227.525 176.357C227.248 200.842 206.923 214.77 171.078 214.77Z" fill="white"/>
</svg>
