<svg width="243" height="238" viewBox="0 0 243 238" fill="none" xmlns="http://www.w3.org/2000/svg">
<path fill-rule="evenodd" clip-rule="evenodd" d="M223.25 184.002C210.068 183.673 199.842 184.992 191.27 188.62C188.803 189.614 184.842 189.614 184.517 192.743C185.836 194.054 185.995 196.201 187.151 198.019C189.128 201.318 192.593 205.762 195.722 208.071C199.188 210.713 202.65 213.347 206.27 215.656C212.699 219.609 219.951 221.918 226.213 225.875C229.841 228.184 233.465 231.151 237.094 233.626C238.904 234.945 240.06 237.092 242.369 237.912V237.413C241.217 235.935 240.884 233.793 239.735 232.137C238.084 230.493 236.436 229.004 234.784 227.36C230.007 220.932 224.07 215.324 217.638 210.713C212.363 207.085 200.824 202.142 198.682 196.042L198.357 195.709C201.977 195.377 206.267 194.058 209.728 193.068C215.337 191.59 220.442 191.915 226.21 190.434C228.851 189.772 231.485 188.949 234.127 188.125V186.643C231.16 183.676 229.017 179.72 225.888 176.919C217.483 169.667 208.247 162.577 198.685 156.644C193.576 153.348 186.981 151.202 181.547 148.405C179.563 147.415 176.271 146.92 175.118 145.272C172.144 141.648 170.5 136.867 168.357 132.578C163.58 123.511 158.962 113.459 154.843 103.897C151.876 97.4688 150.058 91.0403 146.438 85.1069C129.458 57.0841 110.992 40.1041 82.6408 23.4566C76.5449 19.9949 69.2926 18.5097 61.5415 16.6994C57.4221 16.5331 53.3027 16.2043 49.1797 16.0381C46.5381 14.8854 43.9039 11.7524 41.5948 10.2672C32.1997 4.33386 7.96739 -8.52304 1.04018 8.45323C-3.4117 19.1673 7.63487 29.7151 11.4254 35.1572C14.2333 38.9477 17.8539 43.2334 19.8378 47.519C20.9868 50.3194 21.3157 53.2898 22.472 56.2565C25.1062 63.5088 27.5815 71.585 31.0433 78.346C32.8536 81.8077 34.8302 85.4358 37.1393 88.5687C38.4582 90.3827 40.7672 91.2066 41.2586 94.1733C38.9495 97.4725 38.7907 102.416 37.4717 106.539C31.5347 125.167 33.8437 148.242 42.2487 161.923C44.8903 166.043 51.1525 175.109 59.5612 171.647C66.9798 168.68 65.3284 159.285 67.4712 151.043C67.9699 149.066 67.6375 147.747 68.6239 146.428V146.757C70.933 151.372 73.242 155.824 75.3848 160.438C80.4943 168.514 89.3981 176.923 96.8167 182.527C100.77 185.494 103.903 190.607 108.846 192.418V191.919H108.521C107.531 190.441 106.046 189.78 104.727 188.623C101.76 185.657 98.4644 182.029 96.1553 178.733C89.2355 169.504 83.1396 159.282 77.6976 148.734C75.056 143.624 72.7469 138.02 70.6115 132.91C69.614 130.93 69.614 127.963 67.9699 126.977C65.4946 130.601 61.874 133.738 60.0526 138.186C56.9197 145.272 56.5945 154.01 55.4418 163.076C54.7768 163.242 55.1094 163.076 54.7769 163.405C49.5085 162.089 47.6908 156.647 45.7142 152.033C40.771 140.329 39.9434 121.538 44.229 108.02C45.3817 104.559 50.3324 93.6782 48.3558 90.3827C47.3583 87.2497 44.0702 85.4394 42.2525 82.9641C40.1097 79.8312 37.8079 75.878 36.3227 72.4163C32.3696 63.1837 30.393 52.9647 26.1037 43.7321C24.1198 39.4465 20.6617 34.9946 17.8576 31.0415C14.7247 26.5896 11.2703 23.4566 8.79495 18.1846C7.97108 16.3706 6.8184 13.4039 8.13734 11.4273C8.46246 10.1084 9.12746 9.61332 10.439 9.2845C12.5818 7.4705 18.6852 9.77956 20.828 10.766C26.9239 13.2376 32.0334 15.5467 37.1429 19.0048C39.452 20.6525 41.9273 23.7855 44.894 24.613H48.3595C53.6352 25.7657 59.5649 24.9418 64.5082 26.4233C73.2457 29.2275 81.1556 33.3468 88.2491 37.7987C109.84 51.4795 127.647 70.9311 139.677 94.1733C141.653 97.9638 142.477 101.426 144.295 105.382C147.76 113.462 152.046 121.701 155.5 129.615C158.966 137.362 162.261 145.276 167.205 151.704C169.68 155.166 179.566 156.976 184.018 158.79C187.317 160.272 192.423 161.594 195.397 163.405C200.998 166.866 206.603 170.823 211.878 174.614C214.513 176.587 222.759 180.706 223.25 184.002Z" fill="white"/>
<path fill-rule="evenodd" clip-rule="evenodd" d="M55.1131 40.7578C52.3127 40.7578 50.3362 41.0866 48.3596 41.5817V41.9105H48.6847C50.0037 44.5484 52.3127 46.3624 53.9605 48.6678C55.2794 51.3056 56.4358 53.9435 57.7548 56.5814L58.0799 56.2526C60.3889 54.6048 61.5453 51.967 61.5453 48.0101C60.5552 46.8575 60.3926 45.7011 59.5688 44.5484C58.5786 42.9006 56.4358 42.0768 55.1131 40.7578Z" fill="white"/>
</svg>
