<svg width="247" height="246" viewBox="0 0 247 246" fill="none" xmlns="http://www.w3.org/2000/svg">
<g clip-path="url(#clip0_15192_150)">
<path d="M122.593 0C59.8979 0 63.8117 27.1879 63.8117 27.1879L63.8811 55.3562H123.71V63.8127H40.1188C40.1188 63.8127 0 59.2631 0 122.522C0 185.783 35.0165 183.539 35.0165 183.539H55.9147V154.183C55.9147 154.183 54.7877 119.167 90.3727 119.167H149.712C149.712 119.167 183.051 119.706 183.051 86.9462V32.7803C183.05 32.7803 188.114 0 122.593 0ZM89.6032 18.9423C95.5423 18.9373 100.361 23.7474 100.366 29.6865C100.366 29.6934 100.366 29.6994 100.366 29.7063C100.371 35.6454 95.5611 40.4644 89.6221 40.4694C89.6151 40.4694 89.6092 40.4694 89.6022 40.4694C83.6632 40.4743 78.8442 35.6642 78.8392 29.7251C78.8392 29.7182 78.8392 29.7123 78.8392 29.7053C78.8343 23.7662 83.6443 18.9472 89.5834 18.9423C89.5904 18.9423 89.5963 18.9423 89.6032 18.9423Z" fill="white"/>
<path d="M124.366 245.684C187.061 245.684 183.146 218.496 183.146 218.496L183.077 190.328H123.247V181.872H206.839C206.839 181.872 246.958 186.421 246.958 123.161C246.958 59.9 211.942 62.1441 211.942 62.1441H191.043V91.4991C191.043 91.4991 192.17 126.516 156.585 126.516H97.246C97.246 126.516 63.9071 125.977 63.9071 158.738V212.905C63.9071 212.904 58.8445 245.684 124.366 245.684ZM157.355 226.743C151.416 226.748 146.597 221.938 146.592 215.999C146.592 215.992 146.592 215.986 146.592 215.979C146.586 210.04 151.396 205.221 157.335 205.215C157.342 205.215 157.349 205.215 157.356 205.215C163.295 205.21 168.114 210.02 168.119 215.959C168.119 215.965 168.119 215.972 168.119 215.979C168.124 221.918 163.314 226.737 157.375 226.742C157.368 226.742 157.362 226.742 157.355 226.743Z" fill="white"/>
</g>
<defs>
<clipPath id="clip0_15192_150">
<rect width="246.965" height="245.68" fill="white"/>
</clipPath>
</defs>
</svg>
