<svg width="341" height="303" viewBox="0 0 341 303" fill="none" xmlns="http://www.w3.org/2000/svg">
<path d="M170.237 181.623C187.028 181.623 200.64 168.011 200.64 151.22C200.64 134.429 187.028 120.817 170.237 120.817C153.446 120.817 139.833 134.429 139.833 151.22C139.833 168.011 153.446 181.623 170.237 181.623Z" fill="white"/>
<path d="M170.25 220.911C127.552 220.911 90.2098 215.863 62.2611 206.317C23.8578 193.19 0 172.081 0 151.217C0 131.117 22.082 111.417 59.0701 98.5196C89.3976 87.9468 128.88 82.1226 170.247 82.1226H170.253C210.847 82.1226 249.808 87.8408 279.963 98.2227C317.869 111.271 340.5 131.08 340.5 151.217C340.5 172.114 315.811 193.275 276.066 206.439C247.893 215.769 210.314 220.911 170.25 220.911ZM170.25 96.6681C131.046 96.6681 92.2674 102.35 63.8581 112.253C29.7911 124.132 14.5456 140.381 14.5456 151.217C14.5456 162.496 30.9487 180.244 66.9611 192.551C93.4128 201.59 129.128 206.366 170.25 206.366C208.802 206.366 244.753 201.487 271.49 192.629C308.908 180.232 325.948 162.475 325.948 151.217C325.948 140.726 310.075 123.974 275.22 111.977C246.553 102.105 209.271 96.6681 170.25 96.6681Z" fill="white"/>
<path d="M101.302 302.878C95.16 302.878 89.6387 301.56 84.9357 298.842C67.5234 288.814 61.49 259.844 68.7962 221.353C74.7841 189.81 89.4599 152.701 110.127 116.855H110.136C130.412 81.6945 154.827 50.8004 178.885 29.8608C209.127 3.54849 237.588 -6.16977 255.034 3.89394C273.14 14.3304 279.14 46.2882 270.689 87.2946C264.71 116.337 250.385 151.456 230.361 186.183C209.034 223.174 186.003 252.996 163.77 272.438C141.166 292.196 118.751 302.878 101.302 302.878ZM122.733 124.122C103.145 158.086 88.6993 194.514 83.0902 224.062C76.3598 259.511 82.8144 280.832 92.1994 286.242C101.984 291.893 125.539 286.548 154.197 261.487C175.242 243.09 197.221 214.535 217.761 178.923C237.031 145.507 250.767 111.922 256.44 84.3643C264.395 45.7549 257.522 22.1183 247.77 16.494C238.679 11.2637 216.246 16.6365 188.433 40.8336C165.557 60.7398 142.224 90.3188 122.733 124.122Z" fill="white"/>
<path d="M239.297 303.004C222.818 303.004 201.885 293.041 180.097 274.289C155.757 253.346 130.936 222.092 110.205 186.288C89.881 151.185 75.3082 114.606 69.1748 83.2815C61.4747 43.9327 67.2839 14.4204 84.7082 4.33849C102.787 -6.13128 133.475 4.63243 164.779 32.4326C186.97 52.1358 210.243 82.0815 230.312 116.755C251.71 153.697 266.049 188.543 271.785 217.519C279.673 257.331 273.349 288.556 255.294 299.007C250.664 301.689 245.273 303.004 239.297 303.004ZM122.793 179.006C142.436 212.931 166.782 243.643 189.582 263.265C216.93 286.801 238.631 291.877 248.009 286.419C257.77 280.771 264.91 257.68 257.516 220.343C252.085 192.916 238.328 159.618 217.73 124.042C198.415 90.6785 176.179 62.0056 155.121 43.3055C125.651 17.1356 101.733 11.2779 91.9962 16.9265C82.9173 22.178 76.3718 44.3115 83.4507 80.4876C89.281 110.27 103.254 145.255 122.793 179.006Z" fill="white"/>
</svg>
